<svg xmlns="http://www.w3.org/2000/svg" viewBox="0 0 708.7 212.6"><path fill="#fff" d="M708.7 20.6c0-11.3-9.2-20.6-20.6-20.6s-20.6 9.2-20.6 20.6c0 11.3 9.2 20.6 20.6 20.6s20.6-9.3 20.6-20.6zm-2.7 0c0 9.9-8 17.9-17.9 17.9-9.9 0-17.9-8-17.9-17.9 0-9.9 8-17.9 17.9-17.9 9.9 0 17.9 8 17.9 17.9zm-9.9-5.4c0-2.7 0-6.7-7-6.7h-7.7c-.7 0-1.3.6-1.3 1.3v21.4c0 .7.6 1.3 1.3 1.3.7 0 1.3-.6 1.3-1.3v-9.4h5.9l5 10c.2.5.7.7 1.2.7.2 0 .4 0 .6-.1.7-.3.9-1.1.6-1.8l-4.5-9c4.6-.8 4.6-4.6 4.6-6.4zm-2.6 0c0 2.5-.3 4-4 4h-6.7v-8h6.4c2.1 0 3.4.4 3.9 1.1.4.6.4 1.7.4 2.9zM589.4 73.7c0-4.8 10.4-7.7 27.8-7.7 12.5 0 28.4 3.3 41.6 8.6l4.2 1.7V52.2l-2-.7c-12.6-4.4-29-6.9-44.9-6.9-33.3 0-56.6 12.9-56.6 31.3 0 13.2 14.6 24.1 37.1 27.9l21.4 3.7c23.1 3.9 25.6 8.6 25.6 10.5 0 4.6-5.2 7.7-9.7 9.5-5.3 2.4-11.7 3.4-22 3.4-16.7 0-33.7-2.8-47.8-8l-4.1-1.5V144l2.1.6c15.2 4.7 31.9 7.2 48.4 7.2 14.9 0 27.7-1.9 38-5.8 15.7-5.8 25.5-16.4 25.5-27.7 0-7.5-4.4-15-11.6-19.8-7.3-4.7-19.2-8.9-30.3-10.8l-19.8-3.5c-6.3-1-8-1.5-10.8-2.4l-1.1-.3c-7.2-2.1-11-4.7-11-7.8zm-29.6 110.8c-.2.3-.3.7-.2 1.2l8.4 25.7c.2.8.8 1.2 1.5 1.2h2.5c.8 0 1.3-.5 1.5-1.2l8.4-25.6c.2-.5.1-.9-.1-1.2-.1-.2-.4-.5-1-.5H579c-.3 0-1.1.1-1.4 1.2l-6.8 21.9-6.8-21.9c-.2-.8-.7-1.2-1.4-1.2h-1.7c-.7 0-1 .2-1.1.4zm-8.5 25.8c1.5-1.5 2.3-3.7 2.3-6.3v-11.2c0-2.6-.8-4.8-2.3-6.3-1.6-1.5-3.7-2.3-6.3-2.3h-4.8c-2.6 0-4.7.8-6.2 2.3-1.5 1.5-2.3 3.7-2.3 6.3V204c0 2.6.8 4.8 2.3 6.3 1.5 1.6 3.6 2.3 6.2 2.3h4.8c2.6 0 4.7-.8 6.3-2.3zm-2-6.4c0 1.5-.4 2.7-1.2 3.5-.8.8-1.9 1.2-3.4 1.2h-4.3c-1.5 0-2.6-.4-3.4-1.2-.8-.8-1.1-2-1.1-3.5v-11.1c0-1.5.4-2.7 1.1-3.5.8-.8 1.8-1.2 3.4-1.2h4.3c1.5 0 2.6.4 3.4 1.2.8.8 1.2 2 1.2 3.5v11.1zm-33.1-54.1h26.4V46h-26.4v103.8zm0-120.7h26.4V5.7h-26.4v23.4zm4.4 157.4c-1.5-1.6-3.6-2.3-6.2-2.3h-3.7c-2.3 0-4 .6-5.3 1.7v-.3c0-.9-.5-1.4-1.4-1.4h-1.6c-.8 0-1.3.6-1.3 1.4v25.7c0 .9.5 1.4 1.3 1.4h1.6c.8 0 1.4-.6 1.4-1.4v-18.4c0-1.5.4-2.7 1.3-3.5.9-.8 2.1-1.2 3.7-1.2h3.6c1.5 0 2.6.4 3.3 1.2.8.8 1.1 2 1.1 3.6v18.3c0 .9.5 1.4 1.4 1.4h1.6c.8 0 1.3-.6 1.3-1.4v-18.4c.2-2.8-.6-4.9-2.1-6.4zm-57-36.8l35.6-57.3V46l-38.5 59.1c-6.7 10.5-11.5 19.6-11.5 19.6s-5.1-9.5-12.2-20.6L400.2 46h-30.7l63.8 103.7h30.3zm-94.2-49.1c0 11.3-1 15.3-4.9 20.5-3.6 4.7-13.4 7.6-25.6 7.6-14.5 0-26.5-5.4-29.3-13.1-1-3.3-1.7-11.2-1.7-20V46h-27.4v54.1c0 15.2 1.1 19.9 4.8 26.9 10 19.1 37.2 26.1 53.1 26.1 18.9 0 36.6-7.9 45.8-15.8 6-5.1 9.3-9.8 11-17.1l-25.8-41.8v22.2zM277 211.2v-33.1c0-.9-.5-1.4-1.4-1.4H274c-.6 0-1.3.4-1.3 1.4v7.7c-1.3-1.2-3-1.7-5.3-1.7h-3.7c-2.6 0-4.6.8-6.2 2.3-1.5 1.5-2.3 3.7-2.3 6.3v11.2c0 2.6.8 4.8 2.3 6.3 1.5 1.6 3.6 2.3 6.2 2.3h3.7c2.3 0 4.1-.6 5.3-1.7v.3c0 1 .7 1.4 1.3 1.4h1.6c.9.1 1.4-.5 1.4-1.3zm-4.3-7.3c0 1.5-.4 2.7-1.3 3.5-.9.8-2.1 1.2-3.7 1.2H264c-1.5 0-2.6-.4-3.4-1.2-.8-.8-1.1-2-1.1-3.6v-11c0-1.5.4-2.7 1.1-3.6.8-.8 1.8-1.2 3.4-1.2h3.7c1.6 0 2.8.4 3.7 1.2.9.8 1.3 1.9 1.3 3.5v11.2zm-9.1-103.8V46h-27.4v54.6c0 11.3-1 15.3-4.9 20.5-3.6 4.7-13.4 7.6-25.6 7.6-14.5 0-26.5-5.4-29.3-13.1-1-3.3-1.7-11.2-1.7-20V46h-27.4v54.1c0 15.2 1.1 19.9 4.8 26.9 10 19.1 37.2 26.1 53.1 26.1 18.9 0 36.6-7.9 45.8-15.8 10.2-8.7 12.6-16 12.6-37.2zm-116.2 78v33.1c0 .9.5 1.4 1.3 1.4h1.6c.8 0 1.4-.6 1.4-1.4V197h12.7c.8 0 1.4-.5 1.4-1.4v-1.3c0-.8-.5-1.4-1.4-1.4h-12.7v-12.3h14.2c.9 0 1.4-.5 1.4-1.4v-1.3c0-.8-.6-1.4-1.4-1.4h-17.2c-.8.2-1.3.8-1.3 1.6zm-49.7-29.2L130.4 94V46h-.1l-36.9 58.2c-7.1 11.1-12.2 20.6-12.2 20.6s-4.8-9.1-11.6-19.6L31 46H0l67.7 105.5v24.9h30v-27.5zm77.5 36.6v25.7c0 .9.5 1.4 1.3 1.4h1.6c.8 0 1.4-.6 1.4-1.4v-17.6c0-1.7.4-3 1.3-4s2.1-1.4 3.7-1.4h2.5c.5 0 .9-.1 1-.3.2-.2.4-.5.4-1v-1.3c0-.8-.5-1.4-1.4-1.4h-2c-1.6 0-3.1.3-4.2 1-.5.3-.9.6-1.3.9v-.5c0-.9-.5-1.4-1.4-1.4h-1.6c-.8-.1-1.3.5-1.3 1.3zm22 .9c-1.5 1.5-2.3 3.7-2.3 6.3v11.2c0 2.6.8 4.8 2.3 6.3 1.5 1.6 3.6 2.3 6.2 2.3H215c.8 0 1.4-.5 1.4-1.4V210c0-.8-.5-1.4-1.4-1.4h-11.4c-1.5 0-2.6-.4-3.4-1.2-.8-.8-1.1-2-1.1-3.5v-3.3h16.2c.9 0 1.4-.6 1.4-1.4v-6.4c0-2.6-.8-4.8-2.3-6.3-1.6-1.5-3.7-2.3-6.3-2.3h-4.8c-2.5-.1-4.6.7-6.1 2.2zm1.9 6.4c0-1.5.4-2.7 1.1-3.5.7-.8 1.8-1.2 3.4-1.2h4.4c1.5 0 2.6.4 3.4 1.2.8.8 1.1 2 1.1 3.5v4h-13.4v-4zm28.2-6.4c-1.5 1.6-2.3 3.7-2.3 6.3v11.2c0 2.6.8 4.8 2.3 6.3 1.5 1.6 3.6 2.3 6.2 2.3h11.6c.8 0 1.4-.5 1.4-1.4V210c0-.8-.5-1.4-1.4-1.4h-11.4c-1.5 0-2.6-.4-3.4-1.2-.8-.8-1.1-2-1.1-3.5v-3.3h16.2c.9 0 1.4-.6 1.4-1.4v-6.4c0-2.6-.8-4.8-2.3-6.3-1.5-1.5-3.7-2.3-6.3-2.3h-4.8c-2.4-.1-4.5.7-6.1 2.2zm2 6.4c0-1.5.4-2.7 1.1-3.5.8-.8 1.8-1.2 3.4-1.2h4.4c1.5 0 2.6.4 3.4 1.2.8.8 1.1 2 1.1 3.5v4h-13.4v-4zm59.1-6.4c-1.5 1.5-2.3 3.7-2.3 6.3v11.2c0 2.6.8 4.8 2.3 6.3 1.5 1.6 3.6 2.3 6.2 2.3h4.8c2.6 0 4.7-.8 6.3-2.3 1.5-1.5 2.3-3.7 2.3-6.3v-11.2c0-2.6-.8-4.8-2.3-6.3-1.6-1.5-3.7-2.3-6.3-2.3h-4.8c-2.6 0-4.7.8-6.2 2.3zm2 6.4c0-1.5.4-2.7 1.1-3.5.7-.8 1.8-1.2 3.4-1.2h4.3c1.5 0 2.6.4 3.4 1.2.8.8 1.2 2 1.2 3.5v11.1c0 1.6-.4 2.7-1.2 3.5-.8.8-1.9 1.2-3.4 1.2h-4.3c-1.5 0-2.6-.4-3.4-1.2-.8-.8-1.1-2-1.1-3.5v-11.1zm26.7-7.3v25.7c0 1 .7 1.4 1.3 1.4h1.6c.8 0 1.4-.6 1.4-1.4v-18.4c0-1.5.4-2.7 1.3-3.5.9-.8 2.1-1.2 3.7-1.2h2.2c1.5 0 2.6.4 3.4 1.2.8.8 1.1 2 1.1 3.6v18.3c0 .9.5 1.4 1.4 1.4h1.6c.8 0 1.4-.6 1.4-1.4V193c0-1.5.4-2.7 1.3-3.6.9-.9 2.1-1.3 3.7-1.3h2.1c1.5 0 2.6.4 3.4 1.2.8.8 1.1 2 1.1 3.6v18.3c0 .9.5 1.4 1.4 1.4h1.6c.8 0 1.4-.6 1.4-1.4v-18.4c0-2.6-.8-4.8-2.3-6.3-1.5-1.6-3.6-2.3-6.2-2.3h-2.1c-1.5 0-3 .4-4.5 1.1-1.1.5-1.9 1.2-2.5 2.1-1.5-2.1-3.7-3.1-6.8-3.1h-2.3c-2.3 0-4.1.6-5.4 1.8v-.4c0-.9-.5-1.4-1.4-1.4h-1.6c-.6-.2-1.3.2-1.3 1.2zm60.1-7.4v1.3c0 .8.6 1.4 1.4 1.4h7.9v30.5c0 .9.5 1.4 1.4 1.4h1.6c.6 0 1.3-.4 1.3-1.4v-30.5h7.9c.9 0 1.4-.5 1.4-1.4v-1.3c0-.8-.6-1.4-1.4-1.4h-20.1c-.9 0-1.4.5-1.4 1.4zm31.1 8.3c-1.5 1.6-2.3 3.7-2.3 6.3v11.2c0 2.6.8 4.8 2.3 6.3 1.5 1.6 3.6 2.3 6.2 2.3h4.8c2.6 0 4.7-.8 6.3-2.3 1.5-1.5 2.3-3.7 2.3-6.3v-11.2c0-2.6-.8-4.8-2.3-6.3-1.6-1.5-3.7-2.3-6.3-2.3h-4.8c-2.6 0-4.7.8-6.2 2.3zm1.9 6.4c0-1.5.4-2.7 1.1-3.5.8-.8 1.8-1.2 3.4-1.2h4.3c1.5 0 2.6.4 3.4 1.2.8.8 1.2 2 1.2 3.5v11.1c0 1.5-.4 2.7-1.2 3.5-.8.8-1.9 1.2-3.4 1.2h-4.3c-1.5 0-2.6-.4-3.4-1.2-.8-.8-1.1-2-1.1-3.5v-11.1zm45.2-14.7v33.1c0 .9.5 1.4 1.3 1.4h1.6c.8 0 1.4-.6 1.4-1.4v-33.1c0-.9-.5-1.4-1.4-1.4h-1.6c-.8 0-1.3.6-1.3 1.4zm14.8 7.4v25.7c0 .9.5 1.4 1.3 1.4h1.6c.8 0 1.4-.6 1.4-1.4v-18.4c0-1.5.4-2.7 1.3-3.5.9-.8 2.1-1.2 3.7-1.2h3.6c1.5 0 2.6.4 3.4 1.2.8.8 1.1 2 1.1 3.6v18.3c0 .9.5 1.4 1.4 1.4h1.6c.8 0 1.3-.6 1.3-1.4v-18.4c0-2.6-.8-4.8-2.3-6.3-1.5-1.6-3.6-2.3-6.2-2.3h-3.7c-2.3 0-4 .6-5.3 1.7v-.3c0-.9-.5-1.4-1.4-1.4h-1.6c-.7-.1-1.2.5-1.2 1.3zm120.1.9c-1.5 1.5-2.3 3.7-2.3 6.3v11.2c0 2.6.8 4.8 2.3 6.3 1.5 1.6 3.6 2.3 6.2 2.3h3.6c2.3 0 4-.6 5.3-1.7v.3c0 .9.5 1.4 1.4 1.4h1.6c.8 0 1.3-.6 1.3-1.4v-25.7c0-.9-.5-1.4-1.3-1.4h-11.8c-2.6.1-4.7.9-6.3 2.4zm2 6.5c0-1.5.4-2.7 1.1-3.6.8-.8 1.8-1.2 3.3-1.2h8.6v15.8c0 1.5-.4 2.7-1.3 3.5-.9.8-2.1 1.2-3.7 1.2h-3.6c-1.5 0-2.6-.4-3.3-1.2-.8-.8-1.1-2-1.1-3.6v-10.9zm24.3-7.4v1.3c0 .8.5 1.3 1.4 1.3h3.2v16c0 2.6.8 4.7 2.5 6.2 1.6 1.5 3.8 2.3 6.4 2.3h2.4c.8 0 1.4-.5 1.4-1.4V210c0-.8-.5-1.4-1.4-1.4h-2.2c-1.6 0-2.7-.4-3.5-1.2-.8-.8-1.2-1.9-1.2-3.4v-15.9h6.4c.8 0 1.4-.5 1.4-1.3v-1.3c0-.8-.5-1.4-1.4-1.4h-6.4v-6c0-.9-.5-1.4-1.4-1.4h-1.6c-.8 0-1.4.6-1.4 1.4v6H618c-.9 0-1.4.5-1.4 1.4zm26.6.9c-1.5 1.5-2.3 3.7-2.3 6.3v11.2c0 2.6.8 4.8 2.3 6.3 1.5 1.6 3.6 2.3 6.2 2.3H661c.8 0 1.4-.5 1.4-1.4V210c0-.8-.5-1.4-1.4-1.4h-11.4c-1.5 0-2.6-.4-3.4-1.2-.8-.8-1.1-2-1.1-3.5v-3.3h16.2c.9 0 1.4-.6 1.4-1.4v-6.4c0-2.6-.8-4.8-2.3-6.3-1.6-1.5-3.7-2.3-6.3-2.3h-4.8c-2.5-.1-4.6.7-6.1 2.2zm2 6.4c0-1.5.4-2.7 1.1-3.5.8-.8 1.8-1.2 3.4-1.2h4.4c1.5 0 2.6.4 3.4 1.2.8.8 1.1 2 1.1 3.5v4h-13.4v-4z"/></svg>